<svg width="148" height="48" viewBox="0 0 148 48" fill="none" xmlns="http://www.w3.org/2000/svg">
  <path
    d="M22.9238 16.167L16.3333 19.9727V12.3625H11.6667V19.9727L5.07616 16.167L2.74283 20.2095L9.33216 24.014L2.74283 27.8185L5.07616 31.861L11.6667 28.0565V35.6667H16.3333V28.0565L22.9238 31.861L25.2572 27.8185L18.6678 24.014L25.2572 20.2095L22.9238 16.167Z"
    fill="#2D9F9F" />
  <path
    d="M39.312 32.948C36.9653 32.948 35.088 32.1693 33.68 30.612C32.272 29.0333 31.568 26.9213 31.568 24.276C31.568 21.652 32.3787 19.5293 34 17.908C35.5147 16.372 37.36 15.604 39.536 15.604C41.008 15.604 42.2987 15.9987 43.408 16.788C44.5387 17.5773 45.2533 18.6013 45.552 19.86C45.424 20.6493 44.9547 21.044 44.144 21.044C43.312 21.044 42.768 20.5853 42.512 19.668L41.808 17.268C41.04 17.012 40.3147 16.884 39.632 16.884C37.9893 16.884 36.6667 17.5133 35.664 18.772C34.6187 20.0733 34.096 21.8333 34.096 24.052C34.096 26.2493 34.6507 27.988 35.76 29.268C36.8267 30.5267 38.2347 31.156 39.984 31.156C41.008 31.156 41.9467 30.932 42.8 30.484C43.6747 30.0147 44.4 29.364 44.976 28.532L45.648 28.852C44.496 31.5827 42.384 32.948 39.312 32.948ZM48.1215 32.5V31.476L50.8735 31.06C50.9162 28.7133 50.9375 26.7613 50.9375 25.204V9.268L48.0255 9.012V8.02L52.9215 6.676L53.4015 6.964L53.2735 11.892V18.964C54.2122 17.9187 55.2468 17.0973 56.3775 16.5C57.5508 15.9027 58.6815 15.604 59.7695 15.604C61.2628 15.604 62.3615 16.084 63.0655 17.044C63.7908 18.0467 64.1535 19.6573 64.1535 21.876V25.204C64.1535 26.7613 64.1748 28.7133 64.2175 31.06L66.7775 31.476V32.5H58.9695V31.476L61.6895 31.092C61.7322 28.7027 61.7535 26.74 61.7535 25.204V22.004C61.7535 20.3827 61.4975 19.2307 60.9855 18.548C60.5162 17.908 59.7482 17.588 58.6815 17.588C56.9322 17.588 55.1615 18.4413 53.3695 20.148V25.204C53.3695 26.74 53.3908 28.7027 53.4335 31.092L55.9615 31.476V32.5H48.1215ZM74.1783 32.948C72.8343 32.948 71.7463 32.5853 70.9143 31.86C70.0183 31.092 69.5703 30.0467 69.5703 28.724C69.5703 27.5933 69.9649 26.644 70.7543 25.876C71.6076 25.0013 73.0796 24.1907 75.1703 23.444C76.8343 22.932 78.2529 22.548 79.4263 22.292V21.268C79.4263 19.5613 79.1489 18.388 78.5943 17.748C78.0823 17.172 77.1969 16.884 75.9383 16.884C75.1276 16.884 74.3809 17.0013 73.6983 17.236L72.9943 19.604C72.7383 20.5427 72.2156 21.012 71.4263 21.012C70.5516 21.012 70.0823 20.6067 70.0182 19.796C70.3596 18.4947 71.1063 17.4707 72.2583 16.724C73.4316 15.9773 74.8716 15.604 76.5783 15.604C78.3916 15.604 79.7143 16.0413 80.5463 16.916C81.4209 17.8333 81.8583 19.316 81.8583 21.364V28.948C81.8583 30.5693 82.3169 31.38 83.2343 31.38C83.7249 31.38 84.2049 31.124 84.6743 30.612L85.2183 31.284C84.5143 32.3507 83.5863 32.884 82.4343 32.884C81.6236 32.884 80.9623 32.6387 80.4503 32.148C79.9596 31.636 79.6396 30.932 79.4903 30.036C78.4449 31.1027 77.5809 31.8387 76.8983 32.244C76.0663 32.7133 75.1596 32.948 74.1783 32.948ZM75.1063 31.06C75.7463 31.06 76.3756 30.9 76.9943 30.58C77.5489 30.2813 78.3596 29.7053 79.4263 28.852V23.316C77.9543 23.7213 76.7596 24.1053 75.8423 24.468C74.4129 25.0013 73.4103 25.62 72.8343 26.324C72.3863 26.8787 72.1623 27.5293 72.1623 28.276C72.1623 29.1933 72.4396 29.8973 72.9943 30.388C73.5063 30.836 74.2103 31.06 75.1063 31.06ZM92.7945 32.948C90.2772 32.948 89.0185 31.604 89.0185 28.916C89.0185 28.6813 89.0185 28.3187 89.0185 27.828C89.0398 27.1667 89.0505 26.6013 89.0505 26.132V17.524H85.9145V16.34L89.1785 15.956L89.9465 11.22H91.7065L91.5145 16.052H96.3145V17.524H91.4825V28.788C91.4825 30.58 92.1758 31.476 93.5625 31.476C94.3092 31.476 95.1198 31.1667 95.9945 30.548L96.6345 31.348C95.6958 32.4147 94.4158 32.948 92.7945 32.948ZM97.835 32.5V31.476L100.811 31.06C100.854 28.5427 100.875 26.5907 100.875 25.204V9.268L97.963 9.012V8.02L102.923 6.676L103.403 6.964L103.307 11.892V25.204C103.307 26.5907 103.328 28.5427 103.371 31.06L106.251 31.476V32.5H97.835ZM108.562 32.5V31.476L111.314 31.06C111.357 28.7133 111.378 26.7613 111.378 25.204V23.412C111.378 21.236 111.357 19.6147 111.314 18.548L108.37 18.356V17.3L113.394 15.636L113.874 15.956L113.778 20.5V25.204C113.778 26.7613 113.799 28.7133 113.842 31.06L116.37 31.476V32.5H108.562ZM112.498 7.38C113.095 7.38 113.586 7.56133 113.97 7.924C114.354 8.28667 114.546 8.756 114.546 9.332C114.546 9.908 114.343 10.3773 113.938 10.74C113.554 11.1027 113.074 11.284 112.498 11.284C111.922 11.284 111.442 11.1027 111.058 10.74C110.674 10.3773 110.482 9.908 110.482 9.332C110.482 8.756 110.674 8.28667 111.058 7.924C111.442 7.56133 111.922 7.38 112.498 7.38ZM118.872 32.5V31.476L121.848 31.06C121.891 28.4573 121.912 26.5053 121.912 25.204V17.524H118.84V16.34L121.944 15.956C122.051 14.0787 122.296 12.5533 122.68 11.38C123.043 10.2067 123.608 9.22533 124.376 8.436C125.614 7.04933 127.16 6.356 129.016 6.356C129.827 6.356 130.499 6.49467 131.032 6.772C131.63 7.07067 132.014 7.49733 132.184 8.052C132.142 8.45733 131.96 8.788 131.64 9.044C131.342 9.27866 130.926 9.396 130.392 9.396C129.646 9.396 128.846 9.06533 127.992 8.404L127.064 7.668C126.446 7.988 125.944 8.45733 125.56 9.076C124.622 10.4627 124.195 12.788 124.28 16.052H129.304V17.524H124.344V25.204C124.344 26.5053 124.366 28.4573 124.408 31.06L127.672 31.476V32.5H118.872ZM139.313 32.948C137.009 32.948 135.163 32.2013 133.777 30.708C132.326 29.172 131.601 27.06 131.601 24.372C131.601 21.7693 132.379 19.636 133.937 17.972C135.43 16.3933 137.265 15.604 139.441 15.604C141.318 15.604 142.854 16.1907 144.049 17.364C145.243 18.5587 145.841 20.148 145.841 22.132C145.841 23.0067 145.766 23.668 145.617 24.116L134.193 24.084C134.214 26.3667 134.779 28.1373 135.889 29.396C136.934 30.5693 138.342 31.156 140.113 31.156C142.075 31.156 143.75 30.324 145.137 28.66L145.809 29.172C144.379 31.6893 142.214 32.948 139.313 32.948ZM134.225 22.868H141.713C142.374 22.868 142.843 22.708 143.121 22.388C143.334 22.132 143.441 21.716 143.441 21.14C143.441 19.988 143.057 18.996 142.289 18.164C141.478 17.3107 140.475 16.884 139.281 16.884C138.022 16.884 136.934 17.3747 136.017 18.356C135.014 19.444 134.417 20.948 134.225 22.868Z"
    fill="#27272A" />
</svg>